%TF.GenerationSoftware,KiCad,Pcbnew,9.0.7-1.fc43*%
%TF.CreationDate,2026-02-27T16:42:13+02:00*%
%TF.ProjectId,Macropad,4d616372-6f70-4616-942e-6b696361645f,rev?*%
%TF.SameCoordinates,Original*%
%TF.FileFunction,Copper,L2,Bot*%
%TF.FilePolarity,Positive*%
%FSLAX46Y46*%
G04 Gerber Fmt 4.6, Leading zero omitted, Abs format (unit mm)*
G04 Created by KiCad (PCBNEW 9.0.7-1.fc43) date 2026-02-27 16:42:13*
%MOMM*%
%LPD*%
G01*
G04 APERTURE LIST*
%TA.AperFunction,ComponentPad*%
%ADD10C,2.200000*%
%TD*%
%TA.AperFunction,ComponentPad*%
%ADD11R,2.000000X2.000000*%
%TD*%
%TA.AperFunction,ComponentPad*%
%ADD12C,2.000000*%
%TD*%
%TA.AperFunction,ComponentPad*%
%ADD13R,3.200000X2.000000*%
%TD*%
%TA.AperFunction,ComponentPad*%
%ADD14R,3.500000X1.700000*%
%TD*%
%TA.AperFunction,ComponentPad*%
%ADD15O,3.600000X1.700000*%
%TD*%
%TA.AperFunction,ComponentPad*%
%ADD16O,3.700000X1.700000*%
%TD*%
%TA.AperFunction,ViaPad*%
%ADD17C,0.600000*%
%TD*%
%TA.AperFunction,Conductor*%
%ADD18C,0.200000*%
%TD*%
G04 APERTURE END LIST*
D10*
%TO.P,SW6,1,1*%
%TO.N,Net-(U1-PB08_A6_D6_TX)*%
X105540000Y-57920000D03*
%TO.P,SW6,2,2*%
%TO.N,Net-(U1-3V3)*%
X99190000Y-60460000D03*
%TD*%
%TO.P,SW1,1,1*%
%TO.N,Net-(U1-PA6_A10_D10_MOSI)*%
X124540000Y-57920000D03*
%TO.P,SW1,2,2*%
%TO.N,Net-(U1-3V3)*%
X118190000Y-60460000D03*
%TD*%
%TO.P,SW4,1,1*%
%TO.N,Net-(U1-PA7_A8_D8_SCK)*%
X143540000Y-76920000D03*
%TO.P,SW4,2,2*%
%TO.N,Net-(U1-3V3)*%
X137190000Y-79460000D03*
%TD*%
%TO.P,SW5,1,1*%
%TO.N,Net-(U1-PB09_A7_D7_RX)*%
X124540000Y-76920000D03*
%TO.P,SW5,2,2*%
%TO.N,Net-(U1-3V3)*%
X118190000Y-79460000D03*
%TD*%
%TO.P,SW2,1,1*%
%TO.N,Net-(U1-PA5_A9_D9_MISO)*%
X143540000Y-57920000D03*
%TO.P,SW2,2,2*%
%TO.N,Net-(U1-3V3)*%
X137190000Y-60460000D03*
%TD*%
D11*
%TO.P,SW10,A,A*%
%TO.N,Net-(U1-PA02_A0_D0)*%
X96250000Y-77000000D03*
D12*
%TO.P,SW10,B,B*%
%TO.N,Net-(U1-PA4_A1_D1)*%
X96250000Y-82000000D03*
%TO.P,SW10,C,C*%
%TO.N,GND*%
X96250000Y-79500000D03*
D13*
%TO.P,SW10,MP*%
%TO.N,N/C*%
X103750000Y-73900000D03*
X103750000Y-85100000D03*
D12*
%TO.P,SW10,S1,S1*%
%TO.N,Net-(U1-PA10_A2_D2)*%
X110750000Y-82000000D03*
%TO.P,SW10,S2,S2*%
%TO.N,GND*%
X110750000Y-77000000D03*
%TD*%
D14*
%TO.P,U1,1,PA02_A0_D0*%
%TO.N,Net-(U1-PA02_A0_D0)*%
X149625000Y-55380000D03*
D15*
%TO.P,U1,2,PA4_A1_D1*%
%TO.N,Net-(U1-PA4_A1_D1)*%
X149625000Y-57920000D03*
%TO.P,U1,3,PA10_A2_D2*%
%TO.N,Net-(U1-PA10_A2_D2)*%
X149625000Y-60460000D03*
%TO.P,U1,4,PA11_A3_D3*%
%TO.N,unconnected-(U1-PA11_A3_D3-Pad4)*%
X149625000Y-63000000D03*
%TO.P,U1,5,PA8_A4_D4_SDA*%
%TO.N,unconnected-(U1-PA8_A4_D4_SDA-Pad5)*%
X149625000Y-65540000D03*
%TO.P,U1,6,PA9_A5_D5_SCL*%
%TO.N,unconnected-(U1-PA9_A5_D5_SCL-Pad6)*%
X149625000Y-68080000D03*
%TO.P,U1,7,PB08_A6_D6_TX*%
%TO.N,Net-(U1-PB08_A6_D6_TX)*%
X149625000Y-70620000D03*
%TO.P,U1,8,PB09_A7_D7_RX*%
%TO.N,Net-(U1-PB09_A7_D7_RX)*%
X132375000Y-70620000D03*
%TO.P,U1,9,PA7_A8_D8_SCK*%
%TO.N,Net-(U1-PA7_A8_D8_SCK)*%
X132375000Y-68080000D03*
%TO.P,U1,10,PA5_A9_D9_MISO*%
%TO.N,Net-(U1-PA5_A9_D9_MISO)*%
X132375000Y-65540000D03*
D16*
%TO.P,U1,11,PA6_A10_D10_MOSI*%
%TO.N,Net-(U1-PA6_A10_D10_MOSI)*%
X132375000Y-63000000D03*
%TO.P,U1,12,3V3*%
%TO.N,Net-(U1-3V3)*%
X132375000Y-60460000D03*
%TO.P,U1,13,GND*%
X132375000Y-57920000D03*
%TO.P,U1,14,5V*%
X132375000Y-55380000D03*
%TD*%
D17*
%TO.N,Net-(U1-PA5_A9_D9_MISO)*%
X138500000Y-65500000D03*
X141500000Y-57000000D03*
%TO.N,Net-(U1-PA7_A8_D8_SCK)*%
X135500000Y-71000000D03*
%TO.N,Net-(U1-PB08_A6_D6_TX)*%
X146000000Y-68500000D03*
%TD*%
D18*
%TO.N,Net-(U1-PA6_A10_D10_MOSI)*%
X124540000Y-57920000D02*
X129620000Y-63000000D01*
X129620000Y-63000000D02*
X133375000Y-63000000D01*
%TO.N,Net-(U1-PA5_A9_D9_MISO)*%
X142420000Y-57920000D02*
X141500000Y-57000000D01*
X133415000Y-65500000D02*
X133375000Y-65540000D01*
X138500000Y-65500000D02*
X133415000Y-65500000D01*
%TO.N,Net-(U1-PA7_A8_D8_SCK)*%
X141420000Y-76920000D02*
X135500000Y-71000000D01*
X143540000Y-76920000D02*
X141420000Y-76920000D01*
%TO.N,Net-(U1-PB09_A7_D7_RX)*%
X130840000Y-70620000D02*
X133375000Y-70620000D01*
X124540000Y-76920000D02*
X130840000Y-70620000D01*
%TO.N,Net-(U1-PB08_A6_D6_TX)*%
X106000000Y-58000000D02*
X114929000Y-66929000D01*
X105540000Y-57920000D02*
X105920000Y-57920000D01*
X105920000Y-57920000D02*
X106000000Y-58000000D01*
X144429000Y-66929000D02*
X146000000Y-68500000D01*
X114929000Y-66929000D02*
X144429000Y-66929000D01*
%TO.N,Net-(U1-PA02_A0_D0)*%
X152528000Y-58245240D02*
X149662760Y-55380000D01*
X149662760Y-55380000D02*
X148625000Y-55380000D01*
X95711108Y-83301000D02*
X109644008Y-83301000D01*
X145026470Y-84752000D02*
X152528000Y-77250470D01*
X94949000Y-82538892D02*
X95711108Y-83301000D01*
X111095008Y-84752000D02*
X145026470Y-84752000D01*
X94949000Y-78301000D02*
X94949000Y-82538892D01*
X109644008Y-83301000D02*
X111095008Y-84752000D01*
X96250000Y-77000000D02*
X94949000Y-78301000D01*
X152528000Y-77250470D02*
X152528000Y-58245240D01*
%TO.N,Net-(U1-PA4_A1_D1)*%
X96250000Y-82000000D02*
X108910108Y-82000000D01*
X149662760Y-57920000D02*
X148625000Y-57920000D01*
X152127000Y-74254530D02*
X152127000Y-60384240D01*
X152127000Y-60384240D02*
X149662760Y-57920000D01*
X142030530Y-84351000D02*
X152127000Y-74254530D01*
X111261108Y-84351000D02*
X142030530Y-84351000D01*
X108910108Y-82000000D02*
X111261108Y-84351000D01*
%TO.N,Net-(U1-PA10_A2_D2)*%
X151031000Y-69469000D02*
X151726000Y-68774000D01*
X150460000Y-60460000D02*
X148625000Y-60460000D01*
X110750000Y-82250000D02*
X123531000Y-69469000D01*
X151726000Y-61726000D02*
X150460000Y-60460000D01*
X110750000Y-82000000D02*
X110750000Y-82250000D01*
X151726000Y-68774000D02*
X151726000Y-61726000D01*
X123531000Y-69469000D02*
X151031000Y-69469000D01*
%TD*%
M02*
